<?xml version="1.0" encoding="utf-8"?>
<!-- Generator: Adobe Illustrator 22.1.0, SVG Export Plug-In . SVG Version: 6.00 Build 0)  -->
<svg version="1.1" width="25" id="Layer_1" xmlns="http://www.w3.org/2000/svg" xmlns:xlink="http://www.w3.org/1999/xlink" x="0px" y="0px"
	 viewBox="0 0 63 59.7" style="enable-background:new 0 0 63 59.7;" xml:space="preserve">
<style type="text/css">
	.st0{fill:#FFFFFF;}
</style>
<g>
	<path class="st0" d="M59.8,20.7L41.2,2.2c-1-1-2.3-1.6-3.8-1.6c-1.4,0-2.8,0.6-3.8,1.6L4.4,31.6c-1,1-1.6,2.3-1.6,3.8
		c0,1.4,0.6,2.8,1.6,3.8l2.3,2.3c0,0,0,0,0,0c0,0,0,0,0,0L22,56.7h-2.1c-0.7,0-1.2,0.5-1.2,1.2c0,0.7,0.5,1.2,1.2,1.2h6.8
		c0,0,0,0,0,0c0,0,0,0,0,0l17.6,0c0.7,0,1.2-0.5,1.2-1.2c0-0.7-0.5-1.2-1.2-1.2l-13,0l28.5-28.5C61.8,26.2,61.8,22.8,59.8,20.7z
		 M58,26.5L28.7,55.9c-0.5,0.5-1.3,0.8-2,0.8h0c-0.8,0-1.5-0.3-2-0.8L9.2,40.5l28.2-28.2c0.5-0.5,0.5-1.2,0-1.7
		c-0.5-0.5-1.2-0.5-1.7,0L7.5,38.8l-1.4-1.4c-0.5-0.5-0.8-1.3-0.8-2c0-0.8,0.3-1.5,0.8-2L35.5,3.9c0.5-0.5,1.3-0.8,2-0.8
		c0.8,0,1.5,0.3,2,0.8l6.6,6.6L17.9,38.7c-0.5,0.5-0.5,1.2,0,1.7c0.2,0.2,0.5,0.4,0.9,0.4c0.3,0,0.6-0.1,0.9-0.4l28.2-28.2L58,22.5
		C59.2,23.6,59.2,25.4,58,26.5z"/>
	<path class="st0" d="M32.8,35.9c-0.5-0.5-1.2-0.5-1.7,0l-9.6,9.6c-0.5,0.5-0.5,1.2,0,1.7c0.2,0.2,0.5,0.4,0.9,0.4
		c0.3,0,0.6-0.1,0.9-0.4l9.6-9.6C33.3,37.1,33.3,36.3,32.8,35.9z"/>
	<path class="st0" d="M28.9,45L25,48.9c-0.5,0.5-0.5,1.2,0,1.7c0.2,0.2,0.5,0.4,0.9,0.4c0.3,0,0.6-0.1,0.9-0.4l3.9-3.9
		c0.5-0.5,0.5-1.2,0-1.7C30.2,44.5,29.4,44.5,28.9,45z"/>
	<path class="st0" d="M32.5,41.3L32,41.9c-0.5,0.5-0.5,1.2,0,1.7c0.2,0.2,0.5,0.4,0.9,0.4c0.3,0,0.6-0.1,0.9-0.4l0.5-0.5
		c0.5-0.5,0.5-1.2,0-1.7C33.8,40.9,33,40.9,32.5,41.3z"/>
	<path class="st0" d="M49.3,19.4c-0.2-0.2-0.5-0.4-0.9-0.4c-0.3,0-0.6,0.1-0.9,0.4l-5.2,5.2c-0.2,0.2-0.4,0.5-0.4,0.9
		c0,0.3,0.1,0.6,0.4,0.9l3.4,3.4c0.2,0.2,0.5,0.4,0.9,0.4c0.3,0,0.6-0.1,0.9-0.4l5.2-5.2c0.5-0.5,0.5-1.2,0-1.7L49.3,19.4z
		 M46.7,27.1L45,25.4l3.4-3.4l1.7,1.7L46.7,27.1z"/>
	<path class="st0" d="M39.4,9.8c0.3,0,0.6-0.1,0.9-0.4L40.8,9c0.5-0.5,0.5-1.2,0-1.7c-0.5-0.5-1.2-0.5-1.7,0l-0.5,0.5
		c-0.5,0.5-0.5,1.2,0,1.7C38.8,9.7,39.1,9.8,39.4,9.8z"/>
	<path class="st0" d="M15.1,41.6l-0.5,0.5c-0.5,0.5-0.5,1.2,0,1.7c0.2,0.2,0.5,0.4,0.9,0.4c0.3,0,0.6-0.1,0.9-0.4l0.5-0.5
		c0.5-0.5,0.5-1.2,0-1.7C16.3,41.1,15.5,41.1,15.1,41.6z"/>
</g>
</svg>
