<?xml version="1.0" encoding="utf-8"?>
<!-- Generator: Adobe Illustrator 22.1.0, SVG Export Plug-In . SVG Version: 6.00 Build 0)  -->
<svg version="1.1" width="25" id="Layer_1" xmlns="http://www.w3.org/2000/svg" xmlns:xlink="http://www.w3.org/1999/xlink" x="0px" y="0px"
	 viewBox="0 0 63 59.7" style="enable-background:new 0 0 63 59.7;" xml:space="preserve">
<style type="text/css">
	.st0{fill:#FFFFFF;}
</style>
<g>
	<path class="st0" d="M31.5,1.1C15.4,1.1,2.4,14.1,2.4,30.2c0,16.1,13.1,29.1,29.1,29.1c16.1,0,29.1-13.1,29.1-29.1
		C60.6,14.1,47.6,1.1,31.5,1.1L31.5,1.1z M31.5,57.4c-15,0-27.2-12.2-27.2-27.2C4.3,15.2,16.5,3,31.5,3c15,0,27.2,12.2,27.2,27.2
		C58.7,45.2,46.5,57.4,31.5,57.4L31.5,57.4z M31.5,57.4"/>
	<path class="st0" d="M32.5,26.3v-9.8c0-0.5-0.4-1-1-1s-1,0.4-1,1v9.8c-1.4,0.4-2.4,1.4-2.8,2.8h-6.9c-0.5,0-1,0.4-1,1
		c0,0.5,0.4,1,1,1h6.9c0.4,1.7,1.9,2.9,3.7,2.9c2.1,0,3.9-1.7,3.9-3.9C35.4,28.3,34.1,26.8,32.5,26.3L32.5,26.3z M31.5,32
		c-1.1,0-1.9-0.9-1.9-1.9c0-1.1,0.9-1.9,1.9-1.9c1.1,0,1.9,0.9,1.9,1.9C33.4,31.2,32.6,32,31.5,32L31.5,32z M31.5,32"/>
	<path class="st0" d="M31.5,10.7c0.5,0,1-0.4,1-1v-1c0-0.5-0.4-1-1-1s-1,0.4-1,1v1C30.5,10.2,31,10.7,31.5,10.7L31.5,10.7z
		 M31.5,10.7"/>
	<path class="st0" d="M31.5,49.5c-0.5,0-1,0.4-1,1v1c0,0.5,0.4,1,1,1s1-0.4,1-1v-1C32.5,49.9,32,49.5,31.5,49.5L31.5,49.5z
		 M31.5,49.5"/>
	<path class="st0" d="M52.9,29.1h-1c-0.5,0-1,0.4-1,1c0,0.5,0.4,1,1,1h1c0.5,0,1-0.4,1-1C53.8,29.5,53.4,29.1,52.9,29.1L52.9,29.1z
		 M52.9,29.1"/>
	<path class="st0" d="M11.1,29.1h-1c-0.5,0-1,0.4-1,1c0,0.5,0.4,1,1,1h1c0.5,0,1-0.4,1-1C12.1,29.5,11.6,29.1,11.1,29.1L11.1,29.1z
		 M11.1,29.1"/>
	<path class="st0" d="M45.9,14.3L45.2,15c-0.4,0.4-0.4,1,0,1.4c0.2,0.2,0.4,0.3,0.7,0.3c0.3,0,0.5-0.1,0.7-0.3l0.7-0.7
		c0.4-0.4,0.4-1,0-1.4C46.9,13.9,46.3,13.9,45.9,14.3L45.9,14.3z M45.9,14.3"/>
	<path class="st0" d="M16.4,43.8l-0.7,0.7c-0.4,0.4-0.4,1,0,1.4c0.2,0.2,0.4,0.3,0.7,0.3c0.3,0,0.5-0.1,0.7-0.3l0.7-0.7
		c0.4-0.4,0.4-1,0-1.4C17.4,43.4,16.8,43.4,16.4,43.8L16.4,43.8z M16.4,43.8"/>
	<path class="st0" d="M46.6,43.8c-0.4-0.4-1-0.4-1.4,0c-0.4,0.4-0.4,1,0,1.4l0.7,0.7c0.2,0.2,0.4,0.3,0.7,0.3c0.2,0,0.5-0.1,0.7-0.3
		c0.4-0.4,0.4-1,0-1.4L46.6,43.8z M46.6,43.8"/>
	<path class="st0" d="M17.1,14.3c-0.4-0.4-1-0.4-1.4,0c-0.4,0.4-0.4,1,0,1.4l0.7,0.7c0.2,0.2,0.4,0.3,0.7,0.3c0.2,0,0.5-0.1,0.7-0.3
		c0.4-0.4,0.4-1,0-1.4L17.1,14.3z M17.1,14.3"/>
</g>
</svg>
