<?xml version="1.0" encoding="utf-8"?>
<!-- Generator: Adobe Illustrator 22.1.0, SVG Export Plug-In . SVG Version: 6.00 Build 0)  -->
<svg version="1.1" id="Layer_1" xmlns="http://www.w3.org/2000/svg" xmlns:xlink="http://www.w3.org/1999/xlink" x="0px" y="0px"
	 viewBox="0 0 48.9 48.3" style="enable-background:new 0 0 48.9 48.3;" xml:space="preserve">
<style type="text/css">
	.st0{clip-path:url(#SVGID_2_);}
</style>
<g>
	<g>
		<defs>
			<rect id="SVGID_1_" x="4" y="2.9" width="42" height="43"/>
		</defs>
		<clipPath id="SVGID_2_">
			<use xlink:href="#SVGID_1_"  style="overflow:visible;"/>
		</clipPath>
		<path class="st0" d="M39.5,9.4c-8.1-8.1-21.3-8.1-29.4,0C2,17.5,2,30.7,10.1,38.8c8.1,8.1,21.3,8.1,29.4,0
			C47.6,30.7,47.6,17.5,39.5,9.4L39.5,9.4z M33,32.3c-0.6,0.6-1.6,0.6-2.3,0l-5.9-5.9l-6.2,6.2c-0.6,0.6-1.6,0.6-2.3,0
			c-0.6-0.6-0.6-1.6,0-2.3l6.2-6.2l-5.9-5.9c-0.6-0.6-0.6-1.6,0-2.3c0.6-0.6,1.6-0.6,2.3,0l5.9,5.9l5.7-5.7c0.6-0.6,1.6-0.6,2.3,0
			c0.6,0.6,0.6,1.6,0,2.3l-5.7,5.7L33,30C33.7,30.7,33.7,31.7,33,32.3L33,32.3z M33,32.3"/>
	</g>
</g>
</svg>
