<?xml version="1.0" encoding="utf-8"?>
<!-- Generator: Adobe Illustrator 22.1.0, SVG Export Plug-In . SVG Version: 6.00 Build 0)  -->
<svg version="1.1" id="Layer_1" xmlns="http://www.w3.org/2000/svg" xmlns:xlink="http://www.w3.org/1999/xlink" x="0px" y="0px"
	 viewBox="0 0 63 59.7" style="enable-background:new 0 0 63 59.7;" xml:space="preserve">
<style type="text/css">
	.st0{fill:#FFFFFF;}
</style>
<g>
	<g>
		<path class="st0" d="M46.3,40.1c-1.2,1.1-2.4,2.1-3.6,2.9c7.9,1.3,12.2,3.8,12.2,5.2c0,2.1-8.4,6-23.8,6
			C15.7,54.1,7.3,50.1,7.4,48c0-1.5,4.3-3.9,12.2-5.1c-1.2-0.8-2.4-1.8-3.6-2.9c-7.1,1.5-12.2,4.2-12.2,8c0,6.3,13.7,9.7,27.3,9.7
			c13.6,0.1,27.3-3.2,27.3-9.5C58.4,44.4,53.3,41.6,46.3,40.1L46.3,40.1z"/>
	</g>
	<path class="st0" d="M20.4,43.5c-1.1,0.7-1.8,1.7-1.8,2.8c0,3.7,6.7,5.1,12.4,5.1s12.5-1.3,12.5-5c0-1.2-0.7-2.1-1.7-2.9
		c-1.4,0.9-2.7,1.6-3.9,2.2c0.8,0.2,1.4,0.5,1.7,0.7c-1.1,0.6-4.1,1.5-8.6,1.5s-7.4-0.9-8.5-1.5c0.4-0.2,1-0.4,1.8-0.7
		C23.1,45.1,21.8,44.3,20.4,43.5L20.4,43.5z"/>
	<path class="st0" d="M38,41.7c3.3-1.8,6.9-4.4,9.3-8.4c4.9-8.5,1.8-19.5,1.8-19.5s-4.7,1.2-9.4,4.3c1.5,3,2.6,6.5,2.6,10.4
		C42.3,33.7,40.1,38.3,38,41.7L38,41.7z"/>
	<path class="st0" d="M24.3,41.6c-2.2-3.4-4.2-8-4.2-13.3c0-3.9,1.2-7.4,2.7-10.4c-4.6-3.2-9.3-4.3-9.3-4.3s-3.2,11,1.7,19.5
		C17.4,37.1,21,39.9,24.3,41.6L24.3,41.6z"/>
	<path class="st0" d="M31.1,43.8c0.5,0,1-0.2,1.3-0.6c2.2-2.5,6.3-8.2,6.3-14.8c0-8.9-7.5-16.2-7.5-16.2s-7.6,7.2-7.6,16.1
		c0,6.6,4.1,12.3,6.2,14.8C30.2,43.6,30.6,43.8,31.1,43.8L31.1,43.8z"/>
</g>
<polygon class="st0" points="14,4 16.1,1.9 23.6,9.5 31.1,2 38.8,9.6 46.3,2 48.3,4.1 38.7,13.8 31.1,6.2 23.6,13.7 "/>
</svg>
