<?xml version="1.0" encoding="utf-8"?>
<!-- Generator: Adobe Illustrator 22.1.0, SVG Export Plug-In . SVG Version: 6.00 Build 0)  -->
<svg version="1.1" id="Layer_1" xmlns="http://www.w3.org/2000/svg" xmlns:xlink="http://www.w3.org/1999/xlink" x="0px" y="0px"
	 viewBox="0 0 539.6 231.4" style="enable-background:new 0 0 539.6 231.4;" xml:space="preserve">
<style type="text/css">
	.st0{fill:#606060;}
	.st1{fill:#D3AE5B;}
</style>
<polygon class="st0" points="274.9,125.8 190.3,41.2 198.7,32.8 274.9,109 351.1,32.8 427.3,109 503.5,32.8 511.9,41.2 427.3,125.8 
	351.1,49.6 "/>
<polygon class="st0" points="293.8,178.1 275.1,159.5 256.4,178.1 237.8,159.5 234.2,163 256.4,185.2 275.1,166.6 293.8,185.2 
	316,163 312.5,159.5 "/>
<path class="st0" d="M398.8,159.6c-4.5,0-8.6,0.5-13.3,5.3c-2.8,2.8-4.7,4.7-6.4,6.4l-0.5,0.5c-1.3,1.3-2.5,2.5-3.9,3.9
	c-2.9,2.9-5.7,4.4-9,4.4c-1,0-1.2,0-1.5,0h-3.5v5.1h3.5c0.2,0,0.5,0,1.5,0c4.7,0,8.7-2,12.6-5.9c1.1-1.1,2.2-2.2,3.3-3.3l0.8-0.8
	c1.7-1.8,3.7-3.8,6.7-6.7c3.4-3.4,6-3.7,9.8-3.7c0.9,0,1,0,1.3,0h3.6v-5.1L398.8,159.6L398.8,159.6z"/>
<rect x="337.5" y="159.6" class="st0" width="5.1" height="25.5"/>
<polygon class="st0" points="456.5,159.6 456.5,169.8 432.2,169.8 432.2,159.6 427.2,159.6 427.2,185 432.2,185 432.2,174.8 
	456.5,174.8 456.5,185 461.5,185 461.5,159.6 "/>
<g>
	<path class="st1" d="M69.3,160.2c-2.2-3.9-6.1-4-7-4c-4.2,0-6.7,2.8-6.7,6.1c0,3.5,2.7,4.7,6.3,6.3c3.5,1.6,5.3,2.2,7.1,3.4
		c1.6,1,3.8,2.7,3.8,6.3c0,5.5-5.1,9.5-11.2,9.5c-4.6,0-7-2-8.3-3.4c-1.4-1.5-2-2.7-2.3-3.6l2-0.9c0.5,1.3,1.4,2.5,1.9,3.1
		c1.6,1.9,4.2,2.8,6.7,2.8c4.8,0,8.6-3.2,8.6-7.5c0-1.8-0.8-3.6-3.5-5.1c-1-0.5-3.1-1.5-6.1-2.8c-3.5-1.6-5.3-2.4-6.6-4.3
		c-0.8-1.2-1.1-2.4-1.1-3.7c0-3.8,2.8-8.1,9.2-8.1c3.6,0,6.9,1.6,8.7,4.6L69.3,160.2z"/>
	<path class="st1" d="M91,171.8v15.5h-2.4v-32.6h6.9c5.9,0,10.5,2.9,10.5,8.5c0,5.4-4.2,8.6-10.4,8.6L91,171.8L91,171.8z M91,169.8
		h4.7c4.7,0,7.8-2.5,7.8-6.6s-3-6.6-8.2-6.6H91V169.8z"/>
	<path class="st1" d="M134.7,176.6h-15.3l-4.8,10.7H112l15.1-33.6l14.9,33.6h-2.6L134.7,176.6z M133.8,174.6l-6.7-15.5l-6.8,15.5
		H133.8z"/>
</g>
<g>
	<g>
		<path class="st1" d="M122,101.9c-2,1.9-4.2,3.7-6.3,5.1c14,2.3,21.4,6.6,21.4,9.2c0,3.6-14.8,10.6-41.8,10.5s-41.8-7.2-41.8-10.8
			c0-2.6,7.5-6.8,21.5-9c-2.2-1.5-4.3-3.2-6.3-5.2c-12.4,2.7-21.4,7.4-21.5,14.2c0,11.1,24.1,17,48,17.1s48.1-5.6,48.1-16.8
			C143.4,109.5,134.4,104.7,122,101.9L122,101.9z"/>
	</g>
	<path class="st1" d="M76.5,107.9c-1.9,1.3-3.1,2.9-3.1,5c0,6.6,11.8,8.9,21.9,9c10.1,0,21.9-2.2,22-8.8c0-2.1-1.2-3.7-3.1-5
		c-2.4,1.5-4.7,2.8-6.9,3.8c1.4,0.4,2.4,0.8,3.1,1.2c-1.9,1.1-7.2,2.6-15.1,2.6s-13.1-1.6-15-2.7c0.7-0.4,1.7-0.8,3.1-1.2
		C81.2,110.7,78.9,109.4,76.5,107.9L76.5,107.9z"/>
	<path class="st1" d="M107.4,104.7c5.7-3.1,12.2-7.8,16.3-14.8c8.7-14.9,3.2-34.4,3.2-34.4s-8.3,2-16.5,7.5
		c2.6,5.2,4.6,11.5,4.6,18.3C114.9,90.6,111.2,98.8,107.4,104.7L107.4,104.7z"/>
	<path class="st1" d="M83.3,104.6c-3.8-6-7.5-14.2-7.4-23.4c0-6.8,2.1-13.1,4.7-18.3c-8.2-5.6-16.4-7.7-16.4-7.7s-5.7,19.4,2.9,34.4
		C71.2,96.7,77.6,101.5,83.3,104.6L83.3,104.6z"/>
	<path class="st1" d="M95.3,108.4c0.9,0,1.7-0.4,2.2-1c3.8-4.4,11.1-14.4,11.1-26c0.1-15.7-13.2-28.5-13.2-28.5S82.2,65.6,82.2,81.3
		c0,11.6,7.2,21.6,10.9,26.1C93.7,108,94.5,108.4,95.3,108.4L95.3,108.4z"/>
</g>
<polygon class="st1" points="70.2,38.1 73.3,35 84.2,46.1 95.2,35.2 106.4,46.3 117.4,35.2 120.3,38.2 106.3,52.4 95.2,41.3 
	84.2,52.3 "/>
</svg>
