<?xml version="1.0" encoding="utf-8"?>
<!-- Generator: Adobe Illustrator 22.1.0, SVG Export Plug-In . SVG Version: 6.00 Build 0)  -->
<svg version="1.1" id="Layer_1" xmlns="http://www.w3.org/2000/svg" xmlns:xlink="http://www.w3.org/1999/xlink" x="0px" y="0px"
	 viewBox="0 0 48.9 48.3" style="enable-background:new 0 0 48.9 48.3;" xml:space="preserve">
<g>
	<path d="M24.5,1.7c-12.4,0-22.4,10-22.4,22.4c0,12.4,10,22.4,22.4,22.4c12.4,0,22.4-10.1,22.4-22.4C46.9,11.8,36.8,1.7,24.5,1.7
		L24.5,1.7z M34.1,34.5H14.9c-0.9,0-1.6-0.7-1.6-1.6s0.7-1.6,1.6-1.6h19.2c0.9,0,1.6,0.7,1.6,1.6S34.9,34.5,34.1,34.5L34.1,34.5z
		 M34.1,25.7H14.9c-0.9,0-1.6-0.7-1.6-1.6c0-0.9,0.7-1.6,1.6-1.6h19.2c0.9,0,1.6,0.7,1.6,1.6C35.7,25,34.9,25.7,34.1,25.7L34.1,25.7
		z M34.1,16.9H14.9c-0.9,0-1.6-0.7-1.6-1.6c0-0.9,0.7-1.6,1.6-1.6h19.2c0.9,0,1.6,0.7,1.6,1.6C35.7,16.2,34.9,16.9,34.1,16.9
		L34.1,16.9z M34.1,16.9"/>
</g>
</svg>
