<?xml version="1.0" encoding="utf-8"?>
<!-- Generator: Adobe Illustrator 22.1.0, SVG Export Plug-In . SVG Version: 6.00 Build 0)  -->
<svg version="1.1" id="Layer_1" xmlns="http://www.w3.org/2000/svg" xmlns:xlink="http://www.w3.org/1999/xlink" x="0px" y="0px"
	 viewBox="0 0 63 59.7" style="enable-background:new 0 0 63 59.7;" xml:space="preserve">
<style type="text/css">
	.st0{fill:#D3AE5B;}
</style>
<g>
	<path class="st0" d="M35.2,12.4c-0.8-0.5-1.7-0.4-2.5,0c-0.1,0-0.1,0.1-0.1,0.1l-10.6,9.9c-0.1,0.1-0.3,0.1-0.4,0.1h-6.7
		c-1.4,0-2.5,1.1-2.5,2.5v10.2c0,1.4,1.1,2.5,2.5,2.5h6.7c0.1,0,0.3,0,0.4,0.1l10.6,9.9c0,0,0.1,0.1,0.1,0.1
		c0.4,0.2,0.8,0.3,1.3,0.3c0.4,0,0.8-0.1,1.2-0.3c0.8-0.4,1.3-1.3,1.3-2.2v-31C36.4,13.6,35.9,12.8,35.2,12.4L35.2,12.4z M34.8,45.5
		c0,0.5-0.3,0.7-0.4,0.8c-0.1,0.1-0.4,0.2-0.8,0l-10.6-9.9c0,0-0.1-0.1-0.1-0.1C22.4,36.2,22,36,21.5,36h-6.7
		c-0.5,0-0.9-0.4-0.9-0.9V24.9c0-0.5,0.4-0.9,0.9-0.9h6.7c0.4,0,0.9-0.1,1.3-0.3c0.1,0,0.1-0.1,0.1-0.1l10.6-9.9
		c0.4-0.2,0.7,0,0.8,0c0.1,0.1,0.4,0.3,0.4,0.8V45.5z M34.8,45.5"/>
	<path class="st0" d="M41.1,20.3c-0.3,0.3-0.3,0.8,0,1.1c5,5,5,13.1,0,18.1c-0.3,0.3-0.3,0.8,0,1.1c0.2,0.2,0.4,0.2,0.6,0.2
		c0.2,0,0.4-0.1,0.6-0.2c5.6-5.6,5.6-14.8,0-20.4C41.9,20,41.4,20,41.1,20.3L41.1,20.3z M41.1,20.3"/>
	<path class="st0" d="M39.4,22.7c-0.3-0.3-0.8-0.3-1.1,0c-0.3,0.3-0.3,0.8,0,1.1c3.4,3.4,3.4,9,0,12.5c-0.3,0.3-0.3,0.8,0,1.1
		c0.2,0.2,0.4,0.2,0.6,0.2c0.2,0,0.4-0.1,0.6-0.2C43.4,33.3,43.4,26.7,39.4,22.7L39.4,22.7z M39.4,22.7"/>
	<path class="st0" d="M31.6,6.4c-13.2,0-24,10.8-24,24c0,13.2,10.8,24,24,24c13.2,0,24-10.8,24-24C55.6,17.2,44.8,6.4,31.6,6.4
		L31.6,6.4z M31.6,52.8c-12.4,0-22.4-10-22.4-22.4C9.2,18.1,19.2,8,31.6,8C44,8,54,18.1,54,30.4C54,42.8,44,52.8,31.6,52.8
		L31.6,52.8z M31.6,52.8"/>
</g>
</svg>
