<?xml version="1.0" encoding="utf-8"?>
<!-- Generator: Adobe Illustrator 22.1.0, SVG Export Plug-In . SVG Version: 6.00 Build 0)  -->
<svg version="1.1" id="Layer_1" xmlns="http://www.w3.org/2000/svg" xmlns:xlink="http://www.w3.org/1999/xlink" x="0px" y="0px"
	 viewBox="0 0 63 59.7" style="enable-background:new 0 0 63 59.7;" xml:space="preserve">
<style type="text/css">
	.st0{fill:#D3AE5B;}
	.st1{fill:none;stroke:#D3AE5B;stroke-width:2;stroke-miterlimit:10;}
</style>
<g>
	<path class="st0" d="M39.7,12.4c-0.8-0.5-1.7-0.4-2.5,0c-0.1,0-0.1,0.1-0.1,0.1l-10.6,9.9c-0.1,0.1-0.3,0.1-0.4,0.1h-6.7
		c-1.4,0-2.5,1.1-2.5,2.5v10.2c0,1.4,1.1,2.5,2.5,2.5H26c0.1,0,0.3,0,0.4,0.1L37,47.6c0,0,0.1,0.1,0.1,0.1c0.4,0.2,0.8,0.3,1.3,0.3
		c0.4,0,0.8-0.1,1.2-0.3c0.8-0.4,1.3-1.3,1.3-2.2v-31C40.9,13.6,40.4,12.8,39.7,12.4L39.7,12.4z M39.3,45.5c0,0.5-0.3,0.7-0.4,0.8
		c-0.1,0.1-0.4,0.2-0.8,0l-10.6-9.9c0,0-0.1-0.1-0.1-0.1C26.9,36.2,26.5,36,26,36h-6.7c-0.5,0-0.9-0.4-0.9-0.9V24.9
		c0-0.5,0.4-0.9,0.9-0.9H26c0.4,0,0.9-0.1,1.3-0.3c0.1,0,0.1-0.1,0.1-0.1L38,13.7c0.4-0.2,0.7,0,0.8,0c0.1,0.1,0.4,0.3,0.4,0.8V45.5
		z M39.3,45.5"/>
	<path class="st0" d="M31.6,6.4c-13.2,0-24,10.8-24,24c0,13.2,10.8,24,24,24c13.2,0,24-10.8,24-24C55.6,17.2,44.8,6.4,31.6,6.4
		L31.6,6.4z M31.6,52.8c-12.4,0-22.4-10-22.4-22.4C9.2,18.1,19.2,8,31.6,8C44,8,54,18.1,54,30.4C54,42.8,44,52.8,31.6,52.8
		L31.6,52.8z M31.6,52.8"/>
</g>
<line class="st1" x1="14.7" y1="13.6" x2="47.6" y2="46.5"/>
</svg>
