<?xml version="1.0" encoding="utf-8"?>
<!-- Generator: Adobe Illustrator 22.1.0, SVG Export Plug-In . SVG Version: 6.00 Build 0)  -->
<svg version="1.1" id="Layer_1" xmlns="http://www.w3.org/2000/svg" xmlns:xlink="http://www.w3.org/1999/xlink" x="0px" y="0px"
	 viewBox="0 0 63 59.7" style="enable-background:new 0 0 63 59.7;" xml:space="preserve">
<style type="text/css">
	.st0{fill:#D3AE5B;}
</style>
<path class="st0" d="M43,58.7H20c-3.2,0-5.8-2.6-5.8-5.8V6.8C14.2,3.6,16.8,1,20,1H43c3.2,0,5.8,2.6,5.8,5.8v46.1
	C48.8,56.1,46.2,58.7,43,58.7z M20,3.3c-1.9,0-3.5,1.6-3.5,3.5v46.1c0,1.9,1.6,3.5,3.5,3.5H43c1.9,0,3.5-1.6,3.5-3.5V6.8
	c0-1.9-1.6-3.5-3.5-3.5H20z"/>
<path class="st0" d="M33.8,7.9h-4.6c-0.6,0-1.2-0.5-1.2-1.2s0.5-1.2,1.2-1.2h4.6c0.6,0,1.2,0.5,1.2,1.2S34.4,7.9,33.8,7.9z"/>
<path class="st0" d="M32.7,52.9c0,0.6-0.5,1.2-1.2,1.2c-0.6,0-1.2-0.5-1.2-1.2s0.5-1.2,1.2-1.2C32.1,51.7,32.7,52.3,32.7,52.9"/>
<path class="st0" d="M47.6,12.5H15.4c-0.6,0-1.2-0.5-1.2-1.2c0-0.6,0.5-1.2,1.2-1.2h32.3c0.6,0,1.2,0.5,1.2,1.2
	C48.8,12,48.3,12.5,47.6,12.5z"/>
<path class="st0" d="M47.6,49.4H15.4c-0.6,0-1.2-0.5-1.2-1.2s0.5-1.2,1.2-1.2h32.3c0.6,0,1.2,0.5,1.2,1.2S48.3,49.4,47.6,49.4z"/>
</svg>
