<?xml version="1.0" encoding="utf-8"?>
<!-- Generator: Adobe Illustrator 22.1.0, SVG Export Plug-In . SVG Version: 6.00 Build 0)  -->
<svg version="1.1" id="Layer_1" xmlns="http://www.w3.org/2000/svg" xmlns:xlink="http://www.w3.org/1999/xlink" x="0px" y="0px"
	 viewBox="0 0 63 59.7" style="enable-background:new 0 0 63 59.7;" xml:space="preserve">
<style type="text/css">
	.st0{fill:#D3AE5B;}
</style>
<path class="st0" d="M32.2,7.7c0.6,0,1.1-0.5,1.1-1.1s-0.5-1.1-1.1-1.1c-0.6,0-1.1,0.5-1.1,1.1C31.1,7.2,31.6,7.7,32.2,7.7z"/>
<path class="st0" d="M32.2,12.2c-4.4,0-7.9,3.5-8,7.8c0,4.4,3.5,7.9,7.8,8c0,0,0,0,0.1,0c4.3,0,7.9-3.5,7.9-7.8
	C40.1,15.8,36.5,12.2,32.2,12.2z M32.1,25.8C32.1,25.8,32.1,25.8,32.1,25.8c-3.2,0-5.7-2.6-5.6-5.7c0-3.1,2.6-5.6,5.6-5.6
	c0,0,0,0,0,0c3.1,0,5.6,2.6,5.6,5.7C37.7,23.3,35.2,25.8,32.1,25.8z"/>
<path class="st0" d="M37,6.3c-0.6-0.2-1.2,0.1-1.4,0.7c-0.2,0.6,0.1,1.2,0.7,1.4c5,1.8,8.3,6.5,8.3,11.8c0,0.6,0.5,1.1,1.1,1.1
	c0,0,0,0,0,0c0.6,0,1.1-0.5,1.1-1.1C46.8,14,42.9,8.4,37,6.3z"/>
<path class="st0" d="M51.3,20.3C51.4,9.6,42.8,0.9,32.1,0.9C21.6,0.9,13,9.4,12.9,20c-0.1,8.7,4.7,13.7,12.3,23.5
	c-7.5,1.1-12.3,4-12.3,7.4c0,2.3,2.1,4.4,6,5.9c3.5,1.3,8.2,2.1,13.2,2.1s9.6-0.7,13.2-2.1c3.9-1.5,6-3.5,6-5.9
	c0-3.5-4.8-6.3-12.3-7.4C46.6,33.8,51.3,28.7,51.3,20.3z M49.1,50.8c0,2.7-7.2,5.6-16.9,5.6s-16.9-3-16.9-5.6c0-2,4.3-4.5,11.6-5.3
	c1.6,2.1,3,4,4.4,6c0.2,0.3,0.6,0.5,0.9,0.5c0,0,0,0,0,0c0.4,0,0.7-0.2,0.9-0.5c1.4-1.9,2.8-3.9,4.4-6
	C44.7,46.4,49.1,48.9,49.1,50.8z M36.1,43.6c-1.4,1.8-2.7,3.6-4,5.3c-1.2-1.7-2.5-3.4-3.9-5.3c-8.3-10.8-13.1-15.4-13-23.6
	c0.1-9.3,7.7-16.8,16.9-16.8c9.4,0,17,7.7,16.9,17.1C49,28.3,44,33.2,36.1,43.6z"/>
</svg>
